<svg xmlns="http://www.w3.org/2000/svg" viewBox="0 0 960 540" role="img" aria-labelledby="title desc">
  <title id="title">Logo design default image</title>
  <desc id="desc">A clean brand design board with a monogram mark, color swatches, and typography lines.</desc>
  <defs>
    <linearGradient id="bg" x1="0" y1="0" x2="1" y2="1">
      <stop offset="0" stop-color="#0f172a"/>
      <stop offset=".58" stop-color="#172033"/>
      <stop offset="1" stop-color="#102a43"/>
    </linearGradient>
    <linearGradient id="mint" x1="0" y1="0" x2="1" y2="1">
      <stop offset="0" stop-color="#00ff9d"/>
      <stop offset="1" stop-color="#22d3ee"/>
    </linearGradient>
    <linearGradient id="paper" x1="0" y1="0" x2="1" y2="1">
      <stop offset="0" stop-color="#f8fafc"/>
      <stop offset="1" stop-color="#cbd5e1"/>
    </linearGradient>
  </defs>

  <rect width="960" height="540" fill="url(#bg)"/>
  <circle cx="780" cy="104" r="190" fill="#00ff9d" opacity=".07"/>
  <circle cx="150" cy="446" r="210" fill="#38bdf8" opacity=".08"/>

  <rect x="170" y="82" width="620" height="376" rx="28" fill="#0b1120" opacity=".72" stroke="#ffffff" stroke-opacity=".12"/>
  <rect x="216" y="124" width="278" height="278" rx="26" fill="url(#paper)" opacity=".94"/>

  <g transform="translate(260 166)">
    <rect x="0" y="0" width="190" height="190" rx="44" fill="#0f172a"/>
    <path d="M52 139V52h38c33 0 53 17 53 44 0 27-20 43-53 43H52Zm31-28h8c12 0 20-5 20-15 0-11-8-16-20-16h-8v31Z" fill="url(#mint)"/>
    <path d="M53 144h92" stroke="url(#mint)" stroke-width="10" stroke-linecap="round"/>
  </g>

  <g transform="translate(548 132)">
    <rect x="0" y="0" width="190" height="22" rx="11" fill="#e2e8f0" opacity=".88"/>
    <rect x="0" y="58" width="176" height="12" rx="6" fill="#e2e8f0" opacity=".78"/>
    <rect x="0" y="86" width="132" height="10" rx="5" fill="#94a3b8" opacity=".72"/>
    <rect x="0" y="112" width="204" height="10" rx="5" fill="#94a3b8" opacity=".46"/>

    <g transform="translate(0 168)">
      <circle cx="18" cy="18" r="18" fill="#00ff9d"/>
      <circle cx="68" cy="18" r="18" fill="#22d3ee"/>
      <circle cx="118" cy="18" r="18" fill="#a78bfa"/>
      <circle cx="168" cy="18" r="18" fill="#f8fafc"/>
    </g>

    <g transform="translate(0 244)" fill="none" stroke-linecap="round">
      <path d="M0 0h210" stroke="#e2e8f0" stroke-width="8" opacity=".74"/>
      <path d="M0 30h164" stroke="#94a3b8" stroke-width="7" opacity=".6"/>
      <path d="M0 58h116" stroke="#94a3b8" stroke-width="7" opacity=".42"/>
    </g>
  </g>

  <g fill="none" stroke="#ffffff" stroke-opacity=".1" stroke-width="6" stroke-linecap="round">
    <path d="M116 126h82"/>
    <path d="M116 158h52"/>
    <path d="M760 404h92"/>
    <path d="M760 436h58"/>
  </g>
</svg>
